<svg xmlns="http://www.w3.org/2000/svg" xmlns:xlink="http://www.w3.org/1999/xlink" viewBox="0 0 100 125" version="1.1" x="0px" y="0px"><g stroke="none" stroke-width="1" fill="#FFFFFF" fill-rule="evenodd"><path d="M59.9271256,8.32625349 C60.9647742,3.34986781 69.9707191,4.03608496 69.9707191,17.6976412 C69.9707191,31.3591975 63.8776462,36.3539839 63.8776462,40.8362604 C63.8776462,43.5770792 76.7032489,41.5797046 84.9466393,41.5797046 C93.1900297,41.5797046 95.8201088,52.2580257 87.8241957,53.7989347 C98.4390464,57.586046 93.6751932,68.8916723 86.976088,68.8916723 C93.6751932,69.9244594 93.8450173,83.962802 82.3118335,82.3445775 C86.976088,88.5642588 81.8094512,94.2255125 75.1160856,94.8696962 C53.5059296,96.9495034 25.6678976,93.6880175 25.6678976,87.2819708 C25.6678976,80.8759242 25.6678976,47.3155721 25.6678976,43.5770784 C25.6678976,37.2976379 52.9488066,41.7930825 59.9271256,8.32625349 Z M10.5309886,41.9561533 L13.9894789,41.9561533 C17.0441596,41.9561533 19.5204675,44.4334857 19.5204675,47.4879698 L19.5204675,85.5315261 C19.5204675,88.586664 17.0408089,91.0633426 13.9894789,91.0633426 L10.5309886,91.0633426 C7.47630794,91.0633426 5,88.5860101 5,85.5315261 L5,47.4879698 C5,44.4328319 7.47965865,41.9561533 10.5309886,41.9561533 Z"/></g></svg>