<svg xmlns="http://www.w3.org/2000/svg" xmlns:xlink="http://www.w3.org/1999/xlink" viewBox="0 0 100 125" version="1.1" x="0px" y="0px"><g stroke="none" stroke-width="1" fill="#FFFFFF" fill-rule="evenodd"><path d="M29.9173279,50.7271577 C30.153573,52.2979941 30.5602805,53.1170618 30.9645908,53.4577708 C35.5136556,57.2912304 48.6932135,69.3846979 51.8568294,83.2486012 C52.6233574,86.6077542 52.1271676,89.9012647 53.1367058,93.1657736 C53.6414748,94.2539431 57.6796275,98.986408 62.2225493,91.9133057 C66.765471,84.8402034 61.2130111,63.0768116 61.2130111,63.0768116 C61.2130111,63.0768116 60.0776685,60.6292669 72.2253061,60.6791494 C74.1069488,60.6868761 77.3656218,60.6791499 78.879929,60.6791499 C80.8990054,60.6791499 88.4705416,59.268218 87.9657725,53.2832853 C87.4610035,47.2983525 81.9085435,46.7542677 81.9085435,46.7542677 C81.9085435,46.7542677 90.9943871,45.6660982 90.9943871,40.2252502 C90.9943871,34.7844023 89.4800798,32.0639783 80.8990054,32.0639783 C80.8990054,32.0639783 89.9848489,30.9758087 88.4705416,23.9027064 C86.9562344,16.829604 78.879929,18.4618584 78.879929,18.4618584 C78.879929,18.4618584 83.9276199,15.0330491 82.9180817,10.8446713 C81.9085435,6.65629351 79.8894672,4.85973854 71.8131619,4.31565375 C63.7368565,3.77156896 29.900749,8.83263268 29.900749,14.8175654 C29.900749,18.0820742 29.4690168,43.3320979 29.5049288,45.4247273 C29.5049288,45.4247273 29.5846062,48.5148315 29.9173279,50.7271577 L29.9173279,50.7271577 Z"/><path d="M24.7726849,51.56515 C24.7726849,53.3131156 23.3734624,54.7301216 21.6198776,54.7301216 L12.1584203,54.7301216 C10.4171729,54.7301216 9.00561295,53.3137051 9.00561295,51.56515 L9.00561295,15.3239989 C9.00561295,13.5760334 10.4048354,12.1590273 12.1584203,12.1590273 L21.6198776,12.1590273 C23.361125,12.1590273 24.7726849,13.5754438 24.7726849,15.3239989 L24.7726849,51.56515 L24.7726849,51.56515 Z"/></g></svg>